<?xml version="1.0" standalone="no"?>
<!DOCTYPE svg PUBLIC "-//W3C//DTD SVG 20010904//EN"
 "http://www.w3.org/TR/2001/REC-SVG-20010904/DTD/svg10.dtd">
<svg version="1.0" xmlns="http://www.w3.org/2000/svg"
 width="393.000000pt" height="493.000000pt" viewBox="0 0 393.000000 493.000000"
 preserveAspectRatio="xMidYMid meet">

<g transform="translate(0.000000,493.000000) scale(0.100000,-0.100000)"
fill="#000000" stroke="none">
<path d="M1175 4897 c-171 -57 -275 -196 -275 -367 0 -222 179 -391 401 -378
141 8 266 94 327 226 23 48 27 70 26 147 0 114 -25 183 -95 260 -73 79 -156
118 -262 122 -50 2 -98 -2 -122 -10z m55 -236 c0 -123 3 -152 16 -165 13 -13
42 -16 165 -16 l150 0 -6 -22 c-26 -86 -92 -160 -174 -195 -58 -25 -163 -19
-226 12 -188 91 -216 352 -51 476 41 31 87 54 119 58 4 1 7 -66 7 -148z m181
118 c64 -32 120 -101 143 -176 7 -23 7 -23 -108 -23 l-116 0 0 116 c0 130 -4
126 81 83z"/>
<path d="M2020 4830 c-19 -19 -20 -33 -20 -303 0 -262 1 -285 18 -300 17 -16
81 -17 711 -17 458 0 699 4 712 10 18 10 19 24 19 310 0 286 -1 300 -19 310
-13 6 -253 10 -710 10 -678 0 -691 0 -711 -20z m1350 -300 l0 -220 -635 0
-635 0 0 220 0 220 635 0 635 0 0 -220z"/>
<path d="M2212 4658 c-7 -7 -12 -21 -12 -33 0 -45 -3 -45 537 -45 512 0 512 0
524 21 8 16 8 28 0 45 l-11 24 -513 0 c-386 0 -516 -3 -525 -12z"/>
<path d="M2212 4468 c-20 -20 -14 -56 12 -73 20 -14 85 -15 520 -13 479 3 498
4 512 22 18 25 18 41 -2 60 -14 14 -75 16 -523 16 -381 0 -510 -3 -519 -12z"/>
<path d="M912 4048 c-8 -8 -12 -64 -12 -185 l0 -173 -128 0 c-104 0 -132 -3
-152 -17 -46 -31 -315 -246 -322 -257 -5 -6 -7 -310 -5 -674 l2 -664 28 -24
c26 -22 37 -24 128 -24 l99 0 0 -64 c0 -34 5 -77 11 -95 23 -64 -37 -61 1116
-61 921 0 1057 -2 1123 -16 109 -23 222 -15 335 25 l90 31 42 -47 c27 -31 40
-53 36 -63 -3 -8 -8 -31 -11 -51 -3 -31 3 -44 45 -95 253 -314 284 -345 333
-329 22 7 191 142 223 177 9 11 17 35 17 54 0 28 -23 61 -147 212 -82 99 -159
186 -171 193 -13 7 -37 13 -54 14 -24 0 -40 11 -74 50 l-43 50 40 62 c21 34
51 97 66 140 23 67 27 95 27 193 1 127 -14 191 -65 293 l-29 58 0 637 c0 483
-3 641 -12 650 -17 17 -2519 17 -2536 0z m2458 -628 c0 -303 -4 -540 -9 -540
-5 0 -14 7 -21 15 -6 8 -36 30 -66 50 l-54 36 0 403 c0 299 -3 405 -12 414 -8
8 -59 12 -164 12 -125 0 -155 -3 -168 -16 -13 -12 -16 -40 -16 -140 l0 -124
-85 0 -85 0 0 54 c0 80 -12 86 -180 86 -192 0 -180 15 -180 -221 l0 -189 -119
0 c-95 0 -123 -3 -135 -16 -14 -13 -16 -47 -16 -215 0 -257 -15 -239 196 -239
l155 0 -18 -30 -17 -30 -238 0 -238 0 0 336 c0 211 -4 342 -10 355 -19 35 -63
49 -160 49 l-90 0 0 70 c0 85 -17 124 -61 139 -21 7 -132 11 -310 11 l-279 0
0 135 0 135 1190 0 1190 0 0 -540z m-240 -56 l0 -346 -22 6 c-13 3 -51 11 -85
17 l-63 11 0 329 0 329 85 0 85 0 0 -346z m-1590 166 l0 -60 -319 0 -320 0
-98 -77 c-167 -130 -187 -146 -220 -177 l-33 -30 0 -528 0 -528 -80 0 -80 0 0
605 0 605 133 0 c180 0 177 -2 177 141 l0 109 420 0 420 0 0 -60z m1050 -268
l0 -309 -44 -31 c-30 -22 -56 -32 -80 -32 l-36 0 0 340 0 340 80 0 80 0 0
-308z m-1990 223 l0 -45 -61 0 -61 0 58 45 c31 25 59 45 61 45 2 0 3 -20 3
-45z m2258 -247 l-3 -191 -55 -12 c-30 -7 -67 -15 -82 -20 l-28 -7 0 211 0
211 85 0 85 0 -2 -192z m-1058 -598 l0 -730 -575 0 -575 0 0 605 0 605 133 0
c180 0 177 -2 177 141 l0 109 420 0 420 0 0 -730z m-943 583 c-3 -2 -29 -3
-58 -1 l-53 3 54 44 55 43 3 -42 c2 -23 1 -44 -1 -47z m1473 -198 l0 -135 -85
0 -85 0 0 135 0 135 85 0 85 0 0 -135z m775 -103 c166 -61 295 -203 341 -377
18 -66 17 -196 -1 -265 -50 -187 -198 -335 -385 -385 -70 -19 -199 -19 -269 0
-184 49 -337 203 -386 391 -71 273 103 570 382 650 73 20 243 13 318 -14z
m-791 -344 c-7 -29 -16 -79 -20 -110 l-7 -58 -193 0 -194 0 0 110 0 110 214 0
214 0 -14 -52z m0 -324 c9 -37 23 -79 31 -95 8 -15 15 -30 15 -34 0 -3 -103
-5 -230 -5 l-230 0 0 100 0 100 199 0 199 0 16 -66z m167 -289 l58 -55 -320 0
-319 0 0 55 0 55 262 0 261 0 58 -55z m913 -67 c20 -23 36 -45 36 -48 0 -9
-39 -44 -44 -39 -2 2 -20 24 -40 48 -35 41 -36 45 -20 62 24 26 28 25 68 -23z
m286 -242 c68 -83 125 -155 125 -158 0 -9 -147 -129 -155 -126 -11 4 -263 309
-258 313 33 31 152 125 156 125 4 -1 63 -70 132 -154z"/>
<path d="M792 2998 c-15 -15 -15 -51 0 -66 9 -9 120 -12 440 -12 426 0 427 0
439 21 8 16 8 28 0 45 l-11 24 -428 0 c-320 0 -431 -3 -440 -12z"/>
<path d="M798 2798 c-24 -20 -28 -44 -12 -67 15 -21 19 -21 439 -21 372 0 425
2 439 16 22 22 20 50 -6 68 -19 14 -78 16 -433 16 -314 0 -415 -3 -427 -12z"/>
<path d="M798 2589 c-25 -14 -24 -65 1 -79 13 -6 167 -10 434 -10 388 0 415 1
430 18 22 24 21 45 -1 65 -17 15 -61 17 -433 17 -262 0 -420 -4 -431 -11z"/>
<path d="M792 2378 c-20 -20 -14 -56 12 -73 20 -14 76 -15 436 -13 394 3 412
4 426 22 18 25 18 41 -2 60 -14 14 -67 16 -438 16 -315 0 -425 -3 -434 -12z"/>
<path d="M802 2174 c-25 -17 -29 -56 -8 -73 9 -8 134 -10 442 -9 l429 3 10 29
c8 24 6 31 -14 47 -22 18 -46 19 -430 19 -352 0 -410 -2 -429 -16z"/>
<path d="M2825 2857 c-81 -21 -146 -57 -207 -115 -99 -94 -142 -194 -142 -327
0 -134 43 -233 144 -329 101 -97 244 -141 376 -119 282 49 453 341 354 605
-46 124 -163 237 -284 274 -70 21 -181 26 -241 11z m258 -125 c76 -38 129 -92
166 -171 22 -48 26 -69 26 -151 0 -89 -2 -99 -34 -158 -39 -72 -88 -120 -163
-159 -48 -25 -63 -28 -153 -28 -95 0 -103 2 -163 34 -75 41 -125 94 -161 170
-22 48 -26 70 -26 146 0 99 18 153 74 224 101 127 285 166 434 93z"/>
<path d="M3005 2494 c-44 -41 -92 -83 -107 -94 l-26 -20 -52 70 c-38 52 -58
70 -75 70 -26 0 -55 -24 -55 -45 0 -8 34 -59 76 -114 57 -76 82 -101 99 -101
15 0 63 36 136 101 169 149 177 160 143 193 -29 29 -57 17 -139 -60z"/>
</g>
</svg>
