<?xml version="1.0" standalone="no"?>
<!DOCTYPE svg PUBLIC "-//W3C//DTD SVG 20010904//EN"
 "http://www.w3.org/TR/2001/REC-SVG-20010904/DTD/svg10.dtd">
<svg version="1.0" xmlns="http://www.w3.org/2000/svg"
 width="379.000000pt" height="472.000000pt" viewBox="0 0 379.000000 472.000000"
 preserveAspectRatio="xMidYMid meet">

<g transform="translate(0.000000,472.000000) scale(0.100000,-0.100000)"
fill="#000000" stroke="none">
<path d="M3628 4684 c-32 -17 -122 -164 -110 -176 18 -18 157 -96 164 -92 19
12 88 155 88 183 0 84 -69 125 -142 85z"/>
<path d="M1272 3603 l3 -1058 843 -3 842 -2 0 255 0 255 -112 -75 -113 -75
-620 0 c-470 0 -624 3 -633 12 -7 7 -12 21 -12 33 0 46 -7 45 611 45 323 0
590 3 592 8 3 4 8 62 12 130 l7 122 -599 0 c-453 0 -602 3 -611 12 -16 16 -15
53 1 67 10 8 195 12 628 13 l614 3 117 200 117 200 1 273 0 272 -163 0 c-222
0 -207 -15 -207 201 l0 169 -660 0 -660 0 2 -1057z m876 775 c15 -15 15 -51 0
-66 -17 -17 -649 -17 -666 0 -7 7 -12 21 -12 33 0 12 5 26 12 33 17 17 649 17
666 0z m606 -359 c9 -14 12 -29 7 -43 l-8 -21 -628 -3 c-455 -1 -632 1 -641 9
-17 14 -18 51 -2 67 9 9 164 12 634 12 623 0 623 0 638 -21z m0 -345 c20 -20
20 -38 0 -58 -14 -14 -85 -16 -638 -16 -470 0 -625 3 -634 12 -7 7 -12 21 -12
33 0 12 5 26 12 33 9 9 164 12 634 12 553 0 624 -2 638 -16z"/>
<path d="M2680 4490 l0 -100 107 0 108 0 -100 100 c-55 55 -103 100 -107 100
-5 0 -8 -45 -8 -100z"/>
<path d="M1072 3403 l3 -1058 840 0 840 0 3 53 3 52 -775 0 c-691 0 -776 2
-790 16 -14 14 -16 119 -16 1005 l0 989 -55 0 -55 0 2 -1057z"/>
<path d="M3441 4397 c-49 -81 -622 -1078 -627 -1091 -3 -9 22 -29 77 -61 67
-39 84 -45 94 -33 24 26 645 1110 640 1118 -3 4 -41 28 -85 53 l-79 45 -20
-31z"/>
<path d="M630 2785 l0 -955 1388 2 1387 3 3 948 c1 521 -1 947 -5 947 -5 0
-36 -49 -70 -109 l-63 -108 0 -752 c0 -500 -3 -759 -10 -772 -11 -19 -35 -19
-1240 -19 -1104 0 -1230 2 -1244 16 -14 14 -16 100 -16 800 0 920 -15 824 130
824 l90 0 0 65 0 65 -175 0 -175 0 0 -955z"/>
<path d="M860 2785 l0 -725 1158 2 1157 3 3 640 c1 393 -1 635 -7 630 -5 -6
-35 -54 -65 -107 l-56 -97 0 -328 c0 -243 -3 -332 -12 -341 -8 -8 -45 -12
-100 -12 l-88 0 0 -88 c0 -55 -4 -92 -12 -100 -17 -17 -1829 -17 -1846 0 -9 9
-12 163 -12 630 l0 618 -60 0 -60 0 0 -725z"/>
<path d="M2777 3123 c-3 -43 -5 -79 -4 -80 2 -1 31 16 65 39 70 46 70 46 -9
92 l-46 26 -6 -77z"/>
<path d="M437 1733 c-4 -3 -7 -38 -7 -77 0 -89 25 -147 72 -173 31 -17 102
-18 1513 -18 1470 0 1480 0 1515 20 52 31 70 75 70 173 l0 82 -1578 0 c-868 0
-1582 -3 -1585 -7z m1791 -95 c7 -7 12 -25 12 -40 0 -42 -28 -48 -228 -48
-145 0 -182 3 -200 16 -26 18 -29 59 -4 73 26 15 405 14 420 -1z"/>
</g>
</svg>
