<svg xmlns="http://www.w3.org/2000/svg" xmlns:xlink="http://www.w3.org/1999/xlink" xml:space="preserve" version="1.1" style="shape-rendering:geometricPrecision;text-rendering:geometricPrecision;image-rendering:optimizeQuality;" viewBox="0 0 333.33 416.66249999999997" x="0px" y="0px" fill-rule="evenodd" clip-rule="evenodd"><defs><style type="text/css">
   
    .fil0 {fill:black;fill-rule:nonzero}
   
  </style></defs><g><path class="fil0" d="M210.46 292.75l0.1 0.13c1.55,2.06 3.23,4 5.05,5.81 9.88,9.88 23.54,15.99 38.62,15.99 15.08,0 28.74,-6.11 38.62,-15.99 9.88,-9.89 16,-23.54 16,-38.62 0,-15.08 -6.11,-28.74 -16,-38.62 -9.88,-9.88 -23.54,-16 -38.62,-16 -15.08,0 -28.74,6.11 -38.62,16 -9.89,9.88 -16,23.54 -16,38.62 0,12.26 4.04,23.57 10.85,32.68zm15.21 -25.02c-4.23,0 -7.65,-3.43 -7.65,-7.66 0,-4.23 3.43,-7.65 7.65,-7.65l20.9 0 0 -20.9c0,-4.23 3.43,-7.66 7.66,-7.66 4.23,0 7.66,3.43 7.66,7.66l0 20.9 20.9 0c4.23,0 7.65,3.43 7.65,7.65 0,4.23 -3.43,7.66 -7.65,7.66l-20.9 0 0 20.9c0,4.23 -3.43,7.66 -7.66,7.66 -4.23,0 -7.66,-3.43 -7.66,-7.66l0 -20.9 -20.9 0zm-24.95 37.36l-183.88 0c-4.23,0 -7.65,-3.43 -7.65,-7.65l0 -34.65c0,-34.76 14.21,-66.35 37.11,-89.24 14.45,-14.45 32.38,-25.45 52.37,-31.59 -5.72,-3.29 -10.97,-7.31 -15.61,-11.94 -13.43,-13.43 -21.74,-31.98 -21.74,-52.48 0,-20.49 8.31,-39.04 21.74,-52.47 13.43,-13.43 31.98,-21.74 52.48,-21.74 20.49,0 39.04,8.31 52.47,21.74 13.43,13.43 21.74,31.98 21.74,52.47 0,20.49 -8.31,39.05 -21.74,52.48 -4.64,4.64 -9.89,8.67 -15.62,11.95 8.53,2.62 16.69,6.13 24.36,10.42 17.2,9.6 31.95,23.09 43.03,39.25 4.67,-0.98 9.5,-1.5 14.45,-1.5 19.31,0 36.79,7.83 49.44,20.48 12.65,12.66 20.48,30.14 20.48,49.44 0,19.31 -7.83,36.79 -20.48,49.44 -12.65,12.65 -30.14,20.48 -49.44,20.48 -19.31,0 -36.79,-7.83 -49.44,-20.48 -1.42,-1.41 -2.77,-2.89 -4.06,-4.43zm23.9 -108.38c-9.43,-12.66 -21.46,-23.26 -35.29,-30.98 -15.93,-8.9 -34.28,-13.98 -53.8,-13.98 -30.53,0 -58.29,12.5 -78.42,32.62 -20.13,20.13 -32.62,47.89 -32.62,78.42l0 26.99 166.41 0c-4.24,-9.02 -6.61,-19.09 -6.61,-29.71 0,-19.31 7.83,-36.79 20.48,-49.44 5.72,-5.72 12.42,-10.45 19.83,-13.92zm-89.08 -60.27c16.26,0 30.99,-6.59 41.65,-17.25 10.66,-10.66 17.25,-25.38 17.25,-41.65 0,-16.26 -6.59,-30.99 -17.25,-41.65 -10.66,-10.66 -25.38,-17.25 -41.65,-17.25 -16.27,0 -30.99,6.59 -41.65,17.25 -10.66,10.66 -17.25,25.38 -17.25,41.65 0,16.27 6.59,30.99 17.25,41.65 10.66,10.66 25.38,17.25 41.65,17.25z"/></g><text x="0" y="348.33" fill="#000000" font-size="5px" font-weight="bold" font-family="'Helvetica Neue', Helvetica, Arial-Unicode, Arial, Sans-serif">Created by ARISO</text><text x="0" y="353.33" fill="#000000" font-size="5px" font-weight="bold" font-family="'Helvetica Neue', Helvetica, Arial-Unicode, Arial, Sans-serif">from the Noun Project</text></svg>