<svg xmlns="http://www.w3.org/2000/svg" xmlns:xlink="http://www.w3.org/1999/xlink" version="1.1" x="0px" y="0px" viewBox="6 6 52 65" enable-background="new 6 6 52 52" xml:space="preserve"><circle cx="32" cy="25.674" r="7.87"/><path d="M38.169,32.536c-1.636,1.473-3.794,2.377-6.169,2.377s-4.533-0.904-6.169-2.377c-2.465,1.368-4.746,2.106-5.966,6.984  c-0.547,2.189-1.094,5.747-1.094,5.747s5.108,2.921,13.23,2.921c8.121,0,13.229-2.921,13.229-2.921s-0.547-3.558-1.094-5.747  C42.915,34.643,40.634,33.904,38.169,32.536z"/><path d="M40.585,28.962c1.271,1.026,2.885,1.643,4.645,1.643c4.086,0,7.397-3.311,7.397-7.396c0-4.085-3.312-7.396-7.397-7.396  c-2.742,0-5.131,1.495-6.408,3.714c1.473,1.631,2.377,3.782,2.377,6.148C41.198,26.832,40.979,27.938,40.585,28.962z"/><path d="M56.636,36.222c-1.146-4.584-3.29-5.276-5.607-6.563c-1.537,1.384-3.566,2.233-5.799,2.233c-1.953,0-3.752-0.65-5.201-1.741  c-0.271,0.485-0.584,0.947-0.937,1.374c0.149,0.081,0.3,0.163,0.448,0.242c2.283,1.219,4.645,2.478,5.885,7.431  c0.41,1.644,0.811,3.977,1.002,5.146c6.933-0.263,11.238-2.718,11.238-2.718S57.15,38.281,56.636,36.222z"/><path d="M18.77,30.604c1.76,0,3.375-0.616,4.645-1.643c-0.393-1.023-0.613-2.13-0.613-3.288c0-2.366,0.905-4.518,2.377-6.148  c-1.277-2.219-3.666-3.714-6.409-3.714c-4.085,0-7.397,3.312-7.397,7.396C11.373,27.294,14.685,30.604,18.77,30.604z"/><path d="M24.459,31.767c0.148-0.079,0.299-0.161,0.449-0.242c-0.353-0.427-0.665-0.889-0.937-1.374  c-1.449,1.091-3.248,1.741-5.201,1.741c-2.232,0-4.261-0.85-5.799-2.233c-2.317,1.287-4.461,1.979-5.607,6.563  c-0.514,2.06-1.029,5.403-1.029,5.403s4.306,2.455,11.238,2.718c0.191-1.169,0.593-3.502,1.003-5.146  C19.815,34.244,22.176,32.985,24.459,31.767z"/><text x="6" y="73" fill="#000000" font-size="5px" font-weight="bold" font-family="'Helvetica Neue', Helvetica, Arial-Unicode, Arial, Sans-serif">Created by Hana</text><text x="6" y="78" fill="#000000" font-size="5px" font-weight="bold" font-family="'Helvetica Neue', Helvetica, Arial-Unicode, Arial, Sans-serif">from the Noun Project</text></svg>