<?xml version="1.0" standalone="no"?>
<!DOCTYPE svg PUBLIC "-//W3C//DTD SVG 20010904//EN"
 "http://www.w3.org/TR/2001/REC-SVG-20010904/DTD/svg10.dtd">
<svg version="1.0" xmlns="http://www.w3.org/2000/svg"
 width="401.000000pt" height="512.000000pt" viewBox="0 0 401.000000 512.000000"
 preserveAspectRatio="xMidYMid meet">

<g transform="translate(0.000000,512.000000) scale(0.100000,-0.100000)"
fill="#000000" stroke="none">
<path d="M2430 5059 c-24 -11 -53 -27 -63 -36 -12 -12 -47 -19 -115 -23 -143
-10 -198 -44 -252 -155 -18 -36 -34 -52 -74 -73 -68 -36 -129 -98 -144 -149
-6 -22 -12 -72 -12 -110 0 -60 -4 -75 -31 -118 -42 -66 -50 -91 -50 -151 0
-56 14 -99 55 -158 23 -34 26 -49 26 -119 0 -61 5 -91 21 -124 21 -44 92 -113
116 -113 17 0 93 -69 93 -85 0 -21 59 -94 95 -117 l35 -23 0 -373 c0 -413 2
-425 62 -462 45 -27 107 -26 146 3 17 12 63 50 102 85 57 50 76 61 93 56 12
-4 58 -40 102 -80 84 -78 116 -92 178 -80 41 8 84 51 97 97 6 19 10 189 10
395 l0 360 43 30 c27 20 54 53 77 94 30 55 44 69 95 97 106 59 145 128 145
256 0 62 4 75 37 130 34 54 38 68 38 126 0 67 -11 98 -57 170 -17 27 -22 48
-20 90 3 87 -15 144 -59 194 -21 25 -55 52 -76 62 -52 24 -82 53 -105 103 -27
57 -97 117 -153 131 -24 6 -73 11 -108 11 -53 0 -71 5 -103 26 -83 57 -167 68
-244 33z m160 -79 c100 -55 125 -63 190 -62 36 1 79 -3 97 -9 35 -11 93 -70
93 -95 0 -24 78 -101 124 -123 46 -21 95 -71 97 -99 1 -9 3 -51 4 -92 1 -76 2
-78 68 -193 25 -44 17 -104 -21 -164 -38 -61 -55 -122 -47 -176 11 -74 -23
-130 -106 -173 -47 -23 -119 -97 -119 -120 0 -17 -47 -71 -74 -87 -11 -6 -64
-14 -116 -17 -88 -5 -100 -8 -155 -43 -82 -50 -126 -50 -207 0 -56 34 -67 38
-159 43 -119 7 -138 18 -189 110 -37 65 -66 91 -134 125 -64 31 -86 73 -86
164 -1 84 -13 127 -53 185 -41 59 -38 121 10 198 34 55 38 68 43 157 7 116 20
139 100 182 70 37 90 57 128 129 41 77 83 100 182 98 77 0 102 7 185 57 48 30
98 32 145 5z m-205 -1527 c56 -35 66 -38 136 -38 69 0 81 3 130 34 43 27 67
35 117 39 l62 4 0 -369 c0 -274 -3 -372 -12 -381 -27 -27 -60 -12 -148 67
-132 119 -169 118 -305 -8 -79 -74 -104 -84 -137 -54 -17 15 -18 40 -18 380
l0 363 57 0 c49 0 66 -6 118 -37z"/>
<path d="M2368 4707 c-224 -77 -366 -309 -328 -535 41 -245 238 -412 487 -412
140 0 252 49 351 154 250 265 128 696 -227 800 -81 24 -201 20 -283 -7z m325
-94 c87 -41 159 -113 200 -201 29 -61 32 -75 32 -168 0 -96 -2 -103 -38 -176
-43 -88 -107 -152 -195 -195 -52 -26 -67 -28 -167 -28 -105 0 -114 2 -177 33
-252 124 -310 443 -117 647 50 53 126 99 192 116 18 4 70 7 117 6 72 -3 96 -8
153 -34z"/>
<path d="M2462 4514 c-12 -8 -33 -37 -47 -63 -23 -46 -26 -49 -74 -55 -125
-17 -156 -121 -63 -210 30 -27 30 -31 25 -95 -5 -61 -3 -69 21 -97 37 -45 76
-50 147 -18 l58 26 33 -20 c51 -30 84 -35 125 -16 49 24 67 68 54 137 l-9 52
44 47 c47 50 55 83 32 132 -15 35 -46 53 -103 61 -39 6 -50 13 -64 39 -9 17
-30 45 -47 63 -25 26 -40 33 -71 33 -21 0 -49 -7 -61 -16z m103 -114 c27 -54
57 -74 128 -85 53 -8 57 -29 14 -73 -49 -50 -59 -82 -47 -139 16 -68 2 -78
-63 -47 -65 30 -86 30 -145 0 -27 -14 -53 -21 -60 -17 -7 4 -10 33 -9 77 2 71
2 71 -41 118 -24 26 -42 52 -39 59 2 7 30 18 63 25 67 15 94 36 119 93 25 55
48 51 80 -11z"/>
<path d="M252 3108 c-17 -17 -18 -1728 0 -1746 9 -9 98 -12 338 -12 373 0 379
1 415 78 l19 42 61 0 c119 0 175 35 185 114 l5 44 236 -167 c129 -91 264 -188
300 -214 81 -61 185 -112 269 -131 83 -20 237 -20 319 -1 129 31 194 63 414
205 l99 64 146 -29 c127 -24 153 -26 190 -16 42 12 114 67 133 102 27 51 29
131 5 219 -7 25 5 34 239 185 135 87 257 171 270 187 47 56 58 149 25 213 -20
39 -20 39 0 60 28 29 50 89 50 132 -1 115 -119 217 -229 198 -20 -3 -68 -23
-105 -44 l-68 -38 -67 25 c-56 20 -79 23 -156 20 -63 -3 -104 -11 -137 -25
l-47 -21 -40 20 c-63 31 -160 44 -233 31 -39 -6 -187 -62 -380 -142 -174 -72
-321 -131 -325 -131 -5 0 -51 37 -103 81 -171 147 -326 238 -505 298 -93 31
-226 61 -268 61 -23 0 -25 4 -29 68 -9 125 -50 162 -180 162 l-74 0 -12 33
c-7 19 -24 44 -38 58 l-26 24 -341 3 c-262 2 -345 0 -355 -10z m678 -87 c7
-13 10 -277 10 -787 0 -700 -1 -769 -17 -786 -15 -17 -38 -18 -310 -18 l-293
0 0 805 0 805 300 0 c286 0 300 -1 310 -19z m249 -115 c8 -9 10 -195 9 -677
l-3 -664 -82 -3 -83 -3 0 681 0 680 74 0 c50 0 77 -4 85 -14z m296 -251 c120
-30 310 -120 417 -198 42 -30 117 -90 165 -132 166 -146 319 -252 475 -331 40
-21 209 -85 375 -144 167 -59 314 -115 327 -124 88 -57 118 -205 56 -271 -48
-51 -52 -51 -578 51 -268 52 -492 94 -499 94 -20 0 -35 -37 -24 -58 8 -15 66
-30 306 -77 163 -31 293 -61 288 -65 -4 -4 -50 -36 -102 -70 -164 -109 -284
-152 -431 -153 -162 -1 -263 39 -455 179 -60 45 -203 147 -317 228 l-208 147
0 481 0 481 53 -7 c30 -3 98 -17 152 -31z m2340 -109 c40 -17 75 -68 75 -111
0 -16 -9 -45 -20 -63 -19 -30 -24 -33 -48 -25 -15 4 -56 8 -92 8 l-65 0 -270
-156 c-148 -86 -274 -164 -280 -173 -12 -19 4 -49 28 -54 8 -2 137 67 286 152
286 165 308 174 370 141 30 -15 61 -69 61 -105 0 -60 -24 -81 -277 -246 -271
-176 -243 -166 -311 -117 -13 9 -160 65 -327 124 -167 60 -337 125 -377 145
-138 69 -328 198 -306 207 7 2 146 60 308 128 l295 123 85 0 c47 0 93 -4 104
-10 20 -12 51 6 -336 -203 -181 -98 -208 -116 -208 -136 0 -14 9 -29 21 -35
17 -10 67 14 356 170 184 100 353 188 375 196 57 20 208 17 208 -5 0 -3 -144
-89 -320 -191 -176 -102 -322 -192 -325 -201 -9 -26 6 -49 31 -49 13 0 205
105 426 234 222 128 417 240 433 249 38 20 57 21 100 3z"/>
<path d="M643 1770 c-76 -39 -103 -137 -58 -207 25 -37 75 -63 123 -63 85 0
142 56 142 140 0 113 -108 180 -207 130z m107 -80 c41 -41 15 -110 -42 -110
-33 0 -68 31 -68 60 0 27 43 70 70 70 11 0 29 -9 40 -20z"/>
</g>
</svg>
