<svg xmlns="http://www.w3.org/2000/svg" xmlns:xlink="http://www.w3.org/1999/xlink" version="1.1" x="0px" y="0px" viewBox="0 0 100 125" style="enable-background:new 0 0 100 100;" xml:space="preserve"><path d="M52.4,66.6l0,16c0,2.5-2,4.4-4.4,4.4H15c-2.5,0-4.4-2-4.4-4.4V17.3c0-2.5,2-4.4,4.4-4.4h6.5c0,0.1,0,0.1,0,0.3v0.3  c0,1.9,1.6,3.4,3.4,3.4h13c1.9,0,3.4-1.6,3.4-3.4V13c0-0.1,0-0.1,0-0.3h6.6c2.5,0,4.4,2,4.4,4.4l0,0.6h5.1v-0.5  c-0.1-5.2-4.2-9.4-9.5-9.4h-33c-5.1,0-9.4,4.3-9.4,9.4v65.5c0,5.1,4.3,9.4,9.4,9.4H48c5.1,0,9.4-4.3,9.4-9.4V66.6H52.4z"/><path d="M60.9,40.8l-7.5-4.2c-1.3-0.8-2.4-0.3-2.4,0.9v4.6v4.6c0,1.3,1.1,1.7,2.4,0.9l7.5-4.2C62.3,42.8,62.3,41.5,60.9,40.8z"/><path d="M55.6,29.9c-6.8,0-12.3,5.4-12.3,12.3c0,6.8,5.4,12.3,12.3,12.3c6.8,0,12.5-5.6,12.3-12.3C67.9,35.4,62.5,29.9,55.6,29.9z   M55.6,51.8c-5.4,0-9.7-4.3-9.7-9.7s4.4-9.7,9.7-9.7c5.4,0,9.7,4.3,9.7,9.7S60.9,51.8,55.6,51.8z"/><path d="M92,20.8H19c-1.4,0-2.5,1.1-2.5,2.5v53c0,1,0.6,1.9,1.5,2.3c0.3,0.1,0.7,0.2,1,0.2c0.6,0,1.2-0.2,1.7-0.7l15.6-14.4H92  c1.4,0,2.5-1.1,2.5-2.5V23.3C94.5,21.9,93.4,20.8,92,20.8z M78,44.4c-4.5,7.8-12.8,13.4-22.6,13.4c-9.7,0-18.2-5.7-22.6-13.5  c-0.7-1.3-0.7-3.6,0-4.8c4.5-7.8,13.1-13.4,22.7-13.4s18.2,5.7,22.6,13.6C78.9,41,78.9,43,78,44.4z"/><text x="0" y="115" fill="#000000" font-size="5px" font-weight="bold" font-family="'Helvetica Neue', Helvetica, Arial-Unicode, Arial, Sans-serif">Created by Round Icons</text><text x="0" y="120" fill="#000000" font-size="5px" font-weight="bold" font-family="'Helvetica Neue', Helvetica, Arial-Unicode, Arial, Sans-serif">from the Noun Project</text></svg>